<svg preserveAspectRatio="none" width="100%" height="100%" overflow="visible" style="display: block;" viewBox="0 0 12.5 13.0004" fill="none" xmlns="http://www.w3.org/2000/svg">
<path id="Vector" d="M12.1338 5.36598L7.13376 0.365983C6.89935 0.131644 6.58146 0 6.25001 0C5.91855 0 5.60067 0.131644 5.36626 0.365983L0.366256 5.36598C0.249711 5.48181 0.157323 5.61963 0.0944523 5.77145C0.0315816 5.92326 -0.000521047 6.08604 6.39528e-06 6.25036V12.2504C6.39528e-06 12.4493 0.079024 12.64 0.219676 12.7807C0.360329 12.9213 0.551094 13.0004 0.750006 13.0004H4.75001C4.94892 13.0004 5.13968 12.9213 5.28034 12.7807C5.42099 12.64 5.50001 12.4493 5.50001 12.2504V9.00036H7.00001V12.2504C7.00001 12.4493 7.07902 12.64 7.21968 12.7807C7.36033 12.9213 7.55109 13.0004 7.75001 13.0004H11.75C11.9489 13.0004 12.1397 12.9213 12.2803 12.7807C12.421 12.64 12.5 12.4493 12.5 12.2504V6.25036C12.5005 6.08604 12.4684 5.92326 12.4056 5.77145C12.3427 5.61963 12.2503 5.48181 12.1338 5.36598ZM11 11.5004H8.50001V8.25036C8.50001 8.05145 8.42099 7.86068 8.28034 7.72003C8.13968 7.57938 7.94892 7.50036 7.75001 7.50036H4.75001C4.55109 7.50036 4.36033 7.57938 4.21968 7.72003C4.07902 7.86068 4.00001 8.05145 4.00001 8.25036V11.5004H1.50001V6.35348L6.25001 1.60348L11 6.35348V11.5004Z" fill="var(--fill-0, #BDEDE7)"/>
</svg>
